<?xml version="1.0" encoding="UTF-8"?>
<svg id="Capa_1" xmlns="http://www.w3.org/2000/svg" version="1.1" viewBox="0 0 800 800">
  <!-- Generator: Adobe Illustrator 29.0.0, SVG Export Plug-In . SVG Version: 2.1.0 Build 186)  -->
  <defs>
    <style>
      .st0 {
        fill: #fdafa4;
      }

      .st1 {
        fill: #fff;
      }

      .st2 {
        fill: #0f1d7f;
      }
    </style>
  </defs>
  <path class="st2" d="M639.8,141.5c-5.7-.5-10.9-3.4-14.2-7.9-32.6-44.2-85-71.4-140.7-71.4s-7.1.1-10.7.3c-4.7.3-9.3-1.1-13.1-4-33.9-25.6-75-39.5-118-39.5-77.1,0-145.5,44.7-177.4,112.4-2.8,6-8.5,10.2-15.1,11.1C65.6,154.4,0,227.5,0,315.7s79.5,152.8,141.5,179.6c.6-4.1,1.2-8.6,1.9-13.3l513.2,6.9c.3,2.2.5,4.3.8,6.4,62-26.9,142.6-107.9,142.6-179.6,0-91.5-70.6-166.8-160.2-174.2Z"/>
  <path class="st0" d="M400,254.8c-145.3,0-263.1,117.8-263.1,263.1s117.8,263.1,263.1,263.1,263.1-117.8,263.1-263.1c0-145.3-117.8-263.1-263.1-263.1Z"/>
  <g>
    <path class="st1" d="M414.1,255.2c-4.7-.2-9.4-.4-14.1-.4-9.8,0-19.6.6-29.1,1.6l-107.1,486.5c12.3,7.4,25.2,13.9,38.7,19.3l111.7-507.1Z"/>
    <path class="st1" d="M160.5,626.8c15.6,34.2,38.3,64.6,66.3,89l99.2-450.5c-36.4,10.7-69.6,29-97.6,53.1l-67.9,308.3Z"/>
  </g>
  <path class="st2" d="M534,437.1l-109,22.1c-17.1-7.2-37-7.3-54.7,2-31.3,16.5-43.3,55.1-26.8,86.4,16.4,31.3,55.1,43.2,86.4,26.8,17.7-9.3,28.9-25.7,32.6-43.9l80-77.3c3-2.9,3.8-7.5,1.8-11.2-2-3.7-6.1-5.7-10.3-4.9Z"/>
  <rect class="st2" x="305.3" y="628.5" width="189.4" height="36.1"/>
</svg>